# xmcd
#
# Track frame offsets: 
#        150
#        27648
#        44555
#        69240
#        87033
#        111197
#        128621
#        144844
#        168099
#        188706
#        207269
#        224828
#
# Disc length: 3280 seconds
#
# Revision: 0
# Processed by: cddbd v1.5.2PL0 Copyright (c) Steve Scherf et al.
# Submitted via: ExactAudioCopy v0.95b4
#
DISCID=a90cce0c
DTITLE=The Cheaters - The Cheaters L.P.
DYEAR=2006
DGENRE=Country Rock
TTITLE0=Just Want You To Know
TTITLE1=All Of The Drugs
TTITLE2=Can't Read Your Mind
TTITLE3=Lovin'
TTITLE4=Evan Williams
TTITLE5=Pay Me Back
TTITLE6=Cheatin'
TTITLE7=Peaches
TTITLE8=Angela Marie
TTITLE9=New Orleans
TTITLE10=Shana
TTITLE11=Just Another Day
EXTD=
EXTT0=
EXTT1=
EXTT2=
EXTT3=
EXTT4=
EXTT5=
EXTT6=
EXTT7=
EXTT8=
EXTT9=
EXTT10=
EXTT11=
PLAYORDER=
